<?xml version="1.0" encoding="utf-8"?>
<svg width="16" height="16" viewBox="0 0 24 24" fill="none" xmlns="http://www.w3.org/2000/svg">
    <!-- Microphone -->
    <path d="M12 15C10.3431 15 9 13.6569 9 12V5C9 3.34315 10.3431 2 12 2C13.6569 2 15 3.34315 15 5V12C15 13.6569 13.6569 15 12 15Z" fill="#4CAF50" stroke="#2E7D32" stroke-width="1.5"/>
    <!-- Stand -->
    <path d="M19 10V12C19 15.866 15.866 19 12 19M5 10V12C5 15.866 8.13401 19 12 19M12 19V22M8 22H16" stroke="#2E7D32" stroke-width="1.5" stroke-linecap="round"/>
    <!-- Sound waves - frame 3 -->
    <path d="M17 8C17 8 17.5 9 17.5 12C17.5 15 17 16 17 16" stroke="#4CAF50" stroke-width="1.5" stroke-linecap="round" opacity="0.6"/>
    <path d="M7 8C7 8 6.5 9 6.5 12C6.5 15 7 16 7 16" stroke="#4CAF50" stroke-width="1.5" stroke-linecap="round" opacity="0.6"/>
</svg>